<?xml version="1.0" standalone="no"?>
<!DOCTYPE svg PUBLIC "-//W3C//DTD SVG 20010904//EN"
 "http://www.w3.org/TR/2001/REC-SVG-20010904/DTD/svg10.dtd">
<svg version="1.0" xmlns="http://www.w3.org/2000/svg"
 width="499.000000pt" height="499.000000pt" viewBox="0 0 499.000000 499.000000"
 preserveAspectRatio="xMidYMid meet">

<g transform="translate(0.000000,499.000000) scale(0.100000,-0.100000)"
fill="#000000" stroke="none">
<path d="M2569 4761 c-13 -10 -43 -22 -66 -26 -53 -8 -91 -38 -110 -83 -12
-30 -13 -45 -2 -101 7 -36 20 -76 28 -87 16 -21 16 -21 27 25 12 47 31 104 44
131 11 24 58 36 81 22 11 -7 24 -10 28 -8 5 3 16 -3 26 -14 22 -25 35 -25 35
-2 1 12 6 8 16 -12 11 -19 19 -25 23 -17 5 7 12 3 19 -14 7 -14 17 -23 22 -20
12 7 26 -25 35 -79 8 -49 19 -37 39 42 18 73 20 95 7 120 -5 9 -12 25 -15 34
-3 10 -24 31 -48 48 -24 16 -52 37 -63 45 -27 21 -97 19 -126 -4z"/>
<path d="M2520 4485 c0 -9 5 -15 11 -13 6 2 11 8 11 13 0 5 -5 11 -11 13 -6 2
-11 -4 -11 -13z"/>
<path d="M2680 4480 c0 -5 4 -10 9 -10 6 0 13 5 16 10 3 6 -1 10 -9 10 -9 0
-16 -4 -16 -10z"/>
<path d="M2593 4313 c9 -2 23 -2 30 0 6 3 -1 5 -18 5 -16 0 -22 -2 -12 -5z"/>
<path d="M2399 4095 c-16 -23 -40 -41 -69 -52 -182 -66 -278 -123 -304 -176
-40 -85 -109 -409 -126 -594 -11 -110 -10 -138 3 -198 9 -38 30 -140 48 -225
23 -114 37 -159 51 -170 11 -9 30 -53 44 -100 l24 -85 -19 -265 c-11 -146 -23
-314 -26 -375 -3 -60 -19 -216 -35 -345 -39 -314 -59 -541 -65 -745 -4 -168
-5 -169 -40 -243 -19 -41 -46 -87 -59 -103 -27 -32 -52 -97 -41 -107 4 -4 58
-9 122 -10 106 -4 115 -2 119 16 3 10 20 25 37 33 l32 14 -1 90 c0 50 -2 110
-4 135 -2 27 22 174 58 360 33 173 70 376 82 450 28 180 49 263 125 508 89
286 120 375 132 379 10 4 64 -254 120 -577 23 -134 26 -180 34 -610 5 -256 11
-479 15 -496 3 -18 0 -45 -10 -68 -10 -23 -16 -67 -16 -111 l0 -73 40 -16 c22
-9 40 -21 40 -26 0 -31 189 -56 229 -31 23 15 5 74 -36 117 -45 48 -76 116
-76 169 0 22 7 102 16 178 28 232 57 678 56 855 -1 227 35 879 53 947 13 51
43 110 70 137 44 44 147 294 174 421 40 190 -20 652 -99 768 -16 23 -64 54
-172 110 -85 44 -160 90 -172 106 l-23 28 0 -24 c0 -15 -17 -41 -45 -69 -40
-39 -45 -49 -39 -75 4 -22 -3 -48 -33 -107 -21 -43 -41 -79 -45 -79 -4 -1 -24
33 -44 75 -37 75 -37 75 -20 105 17 30 17 30 -9 50 -29 24 -74 108 -68 127 8
22 -4 12 -28 -23z m-269 -784 c0 -5 5 -78 11 -161 9 -139 9 -154 -7 -171 -9
-10 -20 -19 -24 -19 -11 0 -31 177 -25 218 17 99 27 142 36 142 5 0 9 -4 9 -9z
m848 -101 c9 -78 8 -105 -4 -150 -8 -30 -17 -79 -21 -107 -6 -57 -19 -68 -29
-27 -15 59 18 408 36 387 4 -4 12 -51 18 -103z"/>
</g>
</svg>
